<svg width="29" height="39" viewBox="0 0 29 39" fill="none" xmlns="http://www.w3.org/2000/svg">
<path d="M1.1748 38V30.998H3.39648C4.07357 30.998 4.60905 31.1462 5.00293 31.4424C5.40007 31.7386 5.59863 32.1243 5.59863 32.5996C5.59863 32.9967 5.48633 33.3418 5.26172 33.6348C5.03711 33.9277 4.72624 34.1361 4.3291 34.2598V34.2793C4.81087 34.3346 5.19499 34.5137 5.48145 34.8164C5.77116 35.1159 5.91602 35.5065 5.91602 35.9883C5.91602 36.5872 5.68001 37.0723 5.20801 37.4434C4.736 37.8145 4.1403 38 3.4209 38H1.1748ZM2.33203 31.9307V33.9229H3.08398C3.48763 33.9229 3.80339 33.8285 4.03125 33.6396C4.26237 33.4476 4.37793 33.1774 4.37793 32.8291C4.37793 32.2301 3.97754 31.9307 3.17676 31.9307H2.33203ZM2.33203 34.8555V37.0723H3.32324C3.75618 37.0723 4.08984 36.973 4.32422 36.7744C4.56185 36.5726 4.68066 36.2959 4.68066 35.9443C4.68066 35.2184 4.17773 34.8555 3.17188 34.8555H2.33203ZM9.30957 38.1172C8.53809 38.1172 7.92122 37.8844 7.45898 37.4189C7 36.9502 6.77051 36.3301 6.77051 35.5586C6.77051 34.7188 7.00977 34.0628 7.48828 33.5908C7.97005 33.1188 8.61784 32.8828 9.43164 32.8828C10.2129 32.8828 10.8216 33.1123 11.2578 33.5713C11.694 34.0303 11.9121 34.6667 11.9121 35.4805C11.9121 36.278 11.6761 36.9176 11.2041 37.3994C10.7354 37.8779 10.1038 38.1172 9.30957 38.1172ZM9.36328 33.7861C8.92057 33.7861 8.57064 33.9408 8.31348 34.25C8.05632 34.5592 7.92773 34.9857 7.92773 35.5293C7.92773 36.0534 8.05794 36.4668 8.31836 36.7695C8.57878 37.069 8.92708 37.2188 9.36328 37.2188C9.80924 37.2188 10.151 37.0706 10.3887 36.7744C10.6296 36.4782 10.75 36.0566 10.75 35.5098C10.75 34.9596 10.6296 34.5348 10.3887 34.2354C10.151 33.9359 9.80924 33.7861 9.36328 33.7861ZM17.6104 38H16.585V34.333C16.5199 34.4632 16.4206 34.6439 16.2871 34.875L14.1826 38H13.0693V33H14.1094V36.5938C14.1452 36.5091 14.2217 36.3626 14.3389 36.1543L16.4727 33H17.6104V38ZM17.2832 30.5928C17.2311 31.0811 17.0293 31.4668 16.6777 31.75C16.3294 32.0299 15.8916 32.1699 15.3643 32.1699C14.8239 32.1699 14.3828 32.0299 14.041 31.75C13.7025 31.4668 13.5169 31.0811 13.4844 30.5928H14.4268C14.4723 31.1852 14.7897 31.4814 15.3789 31.4814C15.6393 31.4814 15.8542 31.4033 16.0234 31.2471C16.196 31.0908 16.3018 30.8727 16.3408 30.5928H17.2832ZM22.5029 33.9033H21.0771V38H19.9395V33.9033H18.5039V33H22.5029V33.9033ZM27.9424 38H26.917V34.333C26.8519 34.4632 26.7526 34.6439 26.6191 34.875L24.5146 38H23.4014V33H24.4414V36.5938C24.4772 36.5091 24.5537 36.3626 24.6709 36.1543L26.8047 33H27.9424V38Z" fill="#787878"/>
<g clip-path="url(#clip0_1_536)">
</g>
<defs>
<clipPath id="clip0_1_536">
<rect width="24" height="24" fill="white" transform="matrix(1 0 0 -1 3 24)"/>
</clipPath>
</defs>
</svg>
