<svg xmlns="http://www.w3.org/2000/svg" viewBox="0 0 200 200" width="200" height="200">
  <!-- Perforated angle bracket -->
  <g transform="translate(130, 100) rotate(20) scale(1.1)">
    <path fill="#0077be" opacity="0.6" d="M-30,-30 L10,-30 L10,30 L-30,30 L-30,-30 Z"/>
    <path fill="#0077be" opacity="0.6" d="M10,-30 L50,-30 L50,10 L10,10 L10,-30 Z"/>
    
    <!-- Holes in first part -->
    <circle fill="white" opacity="0.9" cx="-20" cy="-20" r="5"/>
    <circle fill="white" opacity="0.9" cx="-20" cy="-5" r="5"/>
    <circle fill="white" opacity="0.9" cx="-20" cy="10" r="5"/>
    <circle fill="white" opacity="0.9" cx="-20" cy="25" r="5"/>
    
    <circle fill="white" opacity="0.9" cx="-5" cy="-20" r="5"/>
    <circle fill="white" opacity="0.9" cx="-5" cy="-5" r="5"/>
    <circle fill="white" opacity="0.9" cx="-5" cy="10" r="5"/>
    <circle fill="white" opacity="0.9" cx="-5" cy="25" r="5"/>
    
    <!-- Holes in second part -->
    <circle fill="white" opacity="0.9" cx="20" cy="-20" r="5"/>
    <circle fill="white" opacity="0.9" cx="35" cy="-20" r="5"/>
    
    <circle fill="white" opacity="0.9" cx="20" cy="-5" r="5"/>
    <circle fill="white" opacity="0.9" cx="35" cy="-5" r="5"/>
  </g>
  
  <!-- Perforated mounting plate -->
  <g transform="translate(50, 120) rotate(-10) scale(0.8)">
    <rect fill="#0077be" opacity="0.6" x="-30" y="-20" width="60" height="40" rx="2"/>
    
    <!-- Holes -->
    <circle fill="white" opacity="0.9" cx="-20" cy="-10" r="4"/>
    <circle fill="white" opacity="0.9" cx="-20" cy="10" r="4"/>
    
    <circle fill="white" opacity="0.9" cx="0" cy="-10" r="4"/>
    <circle fill="white" opacity="0.9" cx="0" cy="10" r="4"/>
    
    <circle fill="white" opacity="0.9" cx="20" cy="-10" r="4"/>
    <circle fill="white" opacity="0.9" cx="20" cy="10" r="4"/>
  </g>
  
  <!-- Perforated tape/strap -->
  <g transform="translate(40, 60) rotate(15) scale(0.9)">
    <path fill="#0077be" opacity="0.6" d="M-40,-5 C-40,-8 -38,-10 -35,-10 L35,-10 C38,-10 40,-8 40,-5 L40,5 C40,8 38,10 35,10 L-35,10 C-38,10 -40,8 -40,5 Z"/>
    
    <!-- Holes -->
    <circle fill="white" opacity="0.9" cx="-30" cy="0" r="4"/>
    <circle fill="white" opacity="0.9" cx="-20" cy="0" r="4"/>
    <circle fill="white" opacity="0.9" cx="-10" cy="0" r="4"/>
    <circle fill="white" opacity="0.9" cx="0" cy="0" r="4"/>
    <circle fill="white" opacity="0.9" cx="10" cy="0" r="4"/>
    <circle fill="white" opacity="0.9" cx="20" cy="0" r="4"/>
    <circle fill="white" opacity="0.9" cx="30" cy="0" r="4"/>
  </g>
</svg> 